@startuml

!theme mono
scale 2

hide class empty members

class Vehicle {
    +{static}wheels: int
    +speed: int
    __init__()
    +{static}move() str
}
class Bicycle {
    +{static}wheels: int
}
class Car
class Train {
    +{static}wheels: int
    +{static}move(): str
}
class Aircraft {
    +{static}wheels: int
    +ground_speed: int
    +air_speed: int
    __init__()
    +{static}move(): str
}

Vehicle <|-- Bicycle
Vehicle <|-- Car
Vehicle <|-- Train
Vehicle <|-- Aircraft : "пример неудачного наследования"

@enduml